<?xml version="1.0" standalone="no"?>
<!DOCTYPE svg PUBLIC "-//W3C//DTD SVG 20010904//EN"
 "http://www.w3.org/TR/2001/REC-SVG-20010904/DTD/svg10.dtd">
<svg version="1.0" xmlns="http://www.w3.org/2000/svg"
 width="496.000000pt" height="503.000000pt" viewBox="0 0 496.000000 503.000000"
 preserveAspectRatio="xMidYMid meet">

<g transform="translate(0.000000,503.000000) scale(0.100000,-0.100000)"
fill="#000000" stroke="none">
<path d="M2405 5009 c-527 -28 -1046 -231 -1478 -578 -63 -51 -186 -172 -365
-359 -138 -144 -322 -478 -411 -747 -48 -145 -56 -180 -101 -424 -29 -156 -41
-518 -19 -593 5 -18 9 -60 9 -93 0 -33 7 -80 16 -105 8 -24 13 -52 10 -62 -6
-27 95 -395 113 -408 4 -3 14 -23 23 -45 50 -123 72 -169 123 -260 121 -218
205 -337 372 -527 352 -399 828 -669 1377 -780 103 -21 137 -23 461 -23 323 0
358 2 461 22 200 41 452 124 583 193 31 16 85 42 121 58 57 25 115 62 350 223
99 68 337 320 421 446 28 43 64 92 79 108 57 63 131 178 118 186 -8 5 0 32 29
96 140 304 225 671 221 956 -1 67 -3 102 -5 77 -35 -508 -98 -734 -313 -1114
-104 -184 -210 -317 -399 -498 -180 -173 -296 -259 -486 -360 -369 -197 -616
-282 -855 -293 l-105 -5 120 20 c358 59 673 179 953 363 108 71 231 168 277
218 17 18 -1 5 -40 -30 -78 -69 -230 -175 -348 -242 -43 -24 -99 -56 -125 -71
-47 -28 -174 -80 -222 -92 -14 -3 2 8 35 24 67 34 61 32 -75 -17 -190 -70
-353 -111 -530 -132 -106 -14 -390 -14 -410 -1 -11 7 -3 10 30 10 97 0 418 21
465 29 90 16 358 89 440 119 127 47 260 109 258 120 -1 5 38 33 87 62 50 28
90 54 90 57 0 3 -19 -6 -42 -20 -114 -66 -162 -90 -262 -132 -59 -25 -112 -42
-117 -39 -5 3 -28 -4 -49 -15 -50 -26 -242 -75 -398 -102 -151 -26 -352 -36
-429 -21 -32 6 -114 16 -183 22 -145 11 -271 43 -475 119 -251 94 -360 154
-553 301 -283 217 -463 403 -597 616 -412 657 -473 1453 -164 2156 67 152 198
368 293 483 23 28 54 67 69 87 15 20 40 43 55 50 15 7 28 22 30 33 5 24 103
127 192 199 349 285 813 470 1259 502 52 4 106 13 120 20 14 8 40 14 58 14 17
0 33 5 35 11 3 9 31 9 113 0 61 -6 135 -11 165 -12 30 0 64 -5 75 -10 21 -9
-125 -4 -195 8 -19 3 -33 3 -30 0 11 -12 207 -39 280 -39 76 1 163 -19 330
-75 77 -26 174 -68 200 -88 8 -7 40 -22 70 -35 126 -52 385 -232 535 -370 38
-35 52 -45 30 -22 -21 23 -34 42 -28 42 7 0 47 -38 90 -85 80 -88 108 -129 57
-85 l-29 25 24 -27 c13 -15 27 -25 32 -23 8 6 74 -70 139 -160 24 -33 47 -62
50 -65 18 -13 51 -93 41 -99 -6 -4 -7 -12 -1 -21 8 -13 10 -13 10 0 1 62 129
-226 204 -458 20 -62 41 -121 47 -130 5 -9 18 -60 29 -112 10 -52 19 -84 19
-71 4 112 -175 666 -238 735 -10 12 -23 36 -29 54 -25 73 -191 305 -314 439
-333 360 -722 594 -1160 697 -188 45 -288 57 -498 63 -221 6 -516 -12 -471
-29 13 -4 39 -6 57 -2 21 4 34 2 34 -4 0 -11 -19 -15 -115 -27 -98 -12 -297
-65 -408 -109 -264 -103 -480 -233 -724 -437 -187 -157 -251 -228 -398 -442
-93 -137 -128 -167 -52 -45 77 123 167 238 277 352 118 122 340 315 384 334
17 8 48 27 70 44 47 36 67 55 49 44 -7 -4 -13 -4 -13 1 1 22 304 175 460 231
227 83 440 121 705 129 255 7 445 -15 725 -83 24 -6 24 -6 5 9 -19 15 -17 15
20 6 51 -14 60 -20 45 -29 -8 -5 -2 -10 17 -14 131 -33 464 -188 602 -280 101
-67 281 -217 366 -305 27 -28 54 -51 61 -51 16 0 44 -34 44 -53 0 -9 6 -17 14
-17 17 0 161 -177 222 -271 23 -37 68 -114 99 -173 31 -58 61 -106 66 -106 6
0 7 -4 4 -10 -3 -5 -1 -10 5 -10 6 0 8 -4 5 -10 -3 -5 -2 -10 4 -10 5 0 17
-20 27 -45 9 -25 19 -44 21 -41 16 16 -153 351 -247 491 -228 338 -543 617
-900 798 -63 33 -122 65 -131 73 -26 23 -225 93 -368 129 -163 42 -299 63
-441 70 -58 3 -125 7 -150 8 -25 2 -108 0 -185 -4z m205 -129 c0 -6 -30 -10
-67 -11 -118 -1 -197 -6 -225 -14 -17 -4 -28 -3 -28 3 0 5 17 14 38 20 50 13
282 15 282 2z m-75 -60 c-3 -5 -26 -10 -51 -10 -24 0 -44 5 -44 10 0 6 23 10
51 10 31 0 48 -4 44 -10z m665 -44 c0 -9 -7 -12 -20 -9 -11 3 -20 9 -20 14 0
5 9 9 20 9 11 0 20 -6 20 -14z m657 -300 c15 -13 25 -27 22 -30 -3 -3 -21 8
-40 24 -19 16 -29 29 -22 30 7 0 25 -11 40 -24z m199 -164 c-6 -5 -65 40 -65
51 -1 4 15 -4 34 -19 20 -15 33 -29 31 -32z"/>
<path d="M1997 4845 c-21 -7 -42 -17 -45 -21 -4 -4 1 -4 11 -1 10 4 36 10 58
13 22 4 42 11 45 15 8 13 -25 10 -69 -6z"/>
<path d="M1728 4768 c-32 -11 -58 -24 -58 -28 0 -8 128 35 139 46 9 9 -27 1
-81 -18z"/>
<path d="M1481 4660 c-66 -33 -121 -62 -121 -64 0 -7 46 14 165 73 55 27 95
50 89 50 -6 1 -66 -26 -133 -59z"/>
<path d="M3295 4688 c11 -6 22 -14 25 -17 6 -8 193 -82 196 -78 2 2 -18 14
-44 27 -26 14 -48 28 -50 33 -2 4 -13 7 -25 7 -12 0 -42 9 -66 20 -47 22 -68
26 -36 8z"/>
<path d="M4330 3996 c0 -2 8 -10 18 -17 15 -13 16 -12 3 4 -13 16 -21 21 -21
13z"/>
<path d="M762 2905 l3 -485 52 0 53 0 0 180 0 180 94 0 c80 0 95 -3 101 -17
12 -32 174 -301 198 -329 21 -24 28 -26 68 -20 77 12 78 16 22 93 -69 92 -203
293 -203 303 0 4 13 13 29 19 46 20 112 90 139 150 38 82 38 194 -1 272 -55
112 -129 139 -384 139 l-173 0 2 -485z m379 364 c63 -35 84 -77 84 -170 0 -67
-4 -81 -30 -125 -23 -36 -45 -56 -85 -77 -52 -26 -59 -27 -147 -21 l-93 7 0
203 0 203 33 4 c17 3 69 4 114 2 63 -2 91 -8 124 -26z"/>
<path d="M4856 3355 c3 -11 21 -72 40 -135 18 -63 33 -103 33 -88 1 15 -4 39
-10 55 -6 15 -17 52 -25 81 -8 30 -21 66 -30 80 -8 15 -12 18 -8 7z"/>
<path d="M1600 2795 l0 -375 224 0 c245 0 236 -2 236 61 l0 28 -177 -2 -178
-2 -3 128 -3 127 146 0 145 0 0 45 0 45 -145 0 -145 0 0 115 0 115 178 2 177
3 3 43 3 42 -230 0 -231 0 0 -375z"/>
<path d="M2260 2795 l0 -375 50 0 50 0 0 160 0 160 129 0 c125 0 129 1 135 23
3 12 6 32 6 45 0 22 -2 22 -135 22 l-135 0 0 125 0 125 165 0 165 0 0 45 0 45
-215 0 -215 0 0 -375z"/>
<path d="M3007 3163 c-9 -14 -287 -731 -287 -739 0 -3 23 -4 52 -2 50 3 52 4
60 38 5 19 18 60 29 91 19 52 23 57 57 63 48 8 217 8 274 0 44 -6 44 -7 65
-68 12 -33 25 -76 28 -93 6 -32 8 -33 56 -33 27 0 49 4 49 9 0 5 -47 142 -104
303 -57 161 -114 326 -127 366 l-23 72 -62 0 c-35 0 -65 -3 -67 -7z m132 -279
c33 -95 61 -175 61 -178 0 -3 -63 -6 -140 -6 -77 0 -140 2 -140 5 0 21 144
365 150 358 4 -4 35 -85 69 -179z"/>
<path d="M3600 2795 l0 -375 45 0 45 0 0 291 c0 174 4 288 9 285 8 -6 89 -120
325 -463 l77 -113 60 0 59 0 0 375 0 375 -45 0 -45 0 0 -290 c0 -171 -4 -290
-9 -290 -8 0 -343 477 -392 558 -12 19 -22 22 -71 22 l-58 0 0 -375z"/>
<path d="M4863 2845 c0 -22 2 -30 4 -17 2 12 2 30 0 40 -3 9 -5 -1 -4 -23z"/>
<path d="M4873 2755 c0 -27 2 -38 4 -22 2 15 2 37 0 50 -2 12 -4 0 -4 -28z"/>
<path d="M1514 1945 c0 -121 2 -169 3 -107 2 62 2 161 0 220 -1 59 -3 8 -3
-113z"/>
<path d="M802 2133 l48 -4 3 -202 2 -202 3 202 2 202 53 4 c28 2 5 3 -53 3
-58 0 -84 -1 -58 -3z"/>
<path d="M1827 2133 c18 -2 50 -2 70 0 21 2 7 4 -32 4 -38 0 -55 -2 -38 -4z"/>
<path d="M2910 1933 c0 -113 2 -204 5 -201 3 3 6 94 6 202 l0 196 43 0 c60 0
76 -8 92 -44 8 -19 13 -24 14 -13 0 10 -11 29 -25 42 -20 21 -34 25 -80 25
l-55 0 0 -207z"/>
<path d="M4130 2074 c-3 -33 -3 -119 0 -190 l5 -129 5 130 c3 72 3 157 0 190
l-6 60 -4 -61z"/>
<path d="M1180 2110 c0 -5 5 -10 10 -10 6 0 10 5 10 10 0 6 -4 10 -10 10 -5 0
-10 -4 -10 -10z"/>
<path d="M1073 2023 c9 -2 23 -2 30 0 6 3 -1 5 -18 5 -16 0 -22 -2 -12 -5z"/>
<path d="M1343 2023 c9 -2 25 -2 35 0 9 3 1 5 -18 5 -19 0 -27 -2 -17 -5z"/>
<path d="M2073 2023 c9 -2 23 -2 30 0 6 3 -1 5 -18 5 -16 0 -22 -2 -12 -5z"/>
<path d="M2248 2023 c6 -2 18 -2 25 0 6 3 1 5 -13 5 -14 0 -19 -2 -12 -5z"/>
<path d="M2413 2023 c9 -2 23 -2 30 0 6 3 -1 5 -18 5 -16 0 -22 -2 -12 -5z"/>
<path d="M2648 2023 c6 -2 18 -2 25 0 6 3 1 5 -13 5 -14 0 -19 -2 -12 -5z"/>
<path d="M3223 2023 c9 -2 23 -2 30 0 6 3 -1 5 -18 5 -16 0 -22 -2 -12 -5z"/>
<path d="M3443 2023 c9 -2 25 -2 35 0 9 3 1 5 -18 5 -19 0 -27 -2 -17 -5z"/>
<path d="M3718 2023 c6 -2 18 -2 25 0 6 3 1 5 -13 5 -14 0 -19 -2 -12 -5z"/>
<path d="M3923 2023 c9 -2 25 -2 35 0 9 3 1 5 -18 5 -19 0 -27 -2 -17 -5z"/>
<path d="M1023 2013 c-10 -3 -12 -41 -11 -146 l2 -142 3 135 c3 112 6 137 20
148 17 12 9 15 -14 5z"/>
<path d="M1278 2013 c7 -3 16 -2 19 1 4 3 -2 6 -13 5 -11 0 -14 -3 -6 -6z"/>
<path d="M1411 2003 c7 -12 15 -20 18 -17 3 2 -3 12 -13 22 -17 16 -18 16 -5
-5z"/>
<path d="M2023 2013 c-10 -3 -12 -41 -11 -146 l2 -142 3 135 c3 112 6 137 20
148 17 12 9 15 -14 5z"/>
<path d="M2364 1998 l-19 -23 23 19 c21 18 27 26 19 26 -2 0 -12 -10 -23 -22z"/>
<path d="M2478 1999 c7 -9 17 -30 22 -45 7 -24 8 -25 9 -7 1 12 -9 32 -21 45
-13 13 -17 16 -10 7z"/>
<path d="M3165 2000 c-26 -28 -15 -31 12 -3 12 13 19 23 14 23 -4 0 -16 -9
-26 -20z"/>
<path d="M3771 2003 c7 -12 15 -20 18 -17 3 2 -3 12 -13 22 -17 16 -18 16 -5
-5z"/>
<path d="M3993 2002 c10 -11 17 -35 17 -60 l0 -41 -52 -4 -53 -3 52 -2 52 -2
4 -57 c2 -36 4 -19 5 45 2 100 -7 142 -30 142 -6 0 -4 -8 5 -18z"/>
<path d="M2184 1997 c-2 -7 -3 -71 -2 -143 l3 -129 5 143 c3 78 4 142 2 142
-1 0 -5 -6 -8 -13z"/>
<path d="M3057 1982 c-5 -25 -15 -37 -37 -45 -35 -13 -36 -16 -14 -43 15 -18
15 -18 5 3 -9 18 -8 23 9 28 26 8 53 49 48 72 -3 12 -6 6 -11 -15z"/>
<path d="M3384 1810 c0 -113 2 -172 3 -132 4 68 5 73 21 61 16 -13 16 -12 0 7
-14 16 -18 44 -21 144 -1 69 -3 33 -3 -80z"/>
<path d="M3528 1995 c5 -11 12 -27 15 -35 5 -13 6 -13 6 1 1 8 -6 24 -15 35
-15 19 -15 19 -6 -1z"/>
<path d="M1192 1965 c0 -16 2 -22 5 -12 2 9 2 23 0 30 -3 6 -5 -1 -5 -18z"/>
<path d="M1800 1955 c0 -6 20 -9 48 -7 84 5 88 8 19 13 -41 2 -67 0 -67 -6z"/>
<path d="M3792 1928 c-2 -45 -3 -47 -34 -51 l-33 -4 33 -1 c38 -2 45 9 39 64
-3 38 -4 37 -5 -8z"/>
<path d="M3141 1944 c0 -11 3 -14 6 -6 3 7 2 16 -1 19 -3 4 -6 -2 -5 -13z"/>
<path d="M3302 1935 c0 -16 2 -22 5 -12 2 9 2 23 0 30 -3 6 -5 -1 -5 -18z"/>
<path d="M2331 1924 c0 -11 3 -14 6 -6 3 7 2 16 -1 19 -3 4 -6 -2 -5 -13z"/>
<path d="M3553 1895 c0 -22 2 -30 4 -17 2 12 2 30 0 40 -3 9 -5 -1 -4 -23z"/>
<path d="M3133 1860 c0 -36 2 -51 4 -33 3 26 9 33 31 36 l27 4 -27 2 c-21 1
-28 7 -31 29 -2 15 -4 -2 -4 -38z"/>
<path d="M3623 1860 c0 -30 2 -43 4 -28 3 20 11 28 31 31 l27 4 -27 2 c-19 1
-28 7 -31 24 -2 12 -4 -3 -4 -33z"/>
<path d="M1302 1884 c-12 -8 -22 -19 -22 -25 0 -5 9 0 21 12 17 17 31 20 75
17 30 -1 54 0 54 5 0 14 -105 7 -128 -9z"/>
<path d="M1628 1893 c17 -2 47 -2 65 0 17 2 3 4 -33 4 -36 0 -50 -2 -32 -4z"/>
<path d="M2332 1870 c0 -19 2 -27 5 -17 2 9 2 25 0 35 -3 9 -5 1 -5 -18z"/>
<path d="M2748 1893 c17 -2 47 -2 65 0 17 2 3 4 -33 4 -36 0 -50 -2 -32 -4z"/>
<path d="M3265 1880 l-30 -8 33 -1 c17 0 32 4 32 9 0 6 -1 9 -2 9 -2 -1 -16
-5 -33 -9z"/>
<path d="M3875 1870 c-10 -11 -16 -22 -14 -24 2 -2 12 7 22 20 22 29 17 32 -8
4z"/>
<path d="M3031 1850 c0 -3 6 -25 13 -50 8 -25 15 -36 15 -25 0 17 -26 88 -28
75z"/>
<path d="M1271 1809 c-1 -23 6 -44 17 -56 9 -10 13 -13 8 -5 -6 8 -13 32 -17
55 l-6 42 -2 -36z"/>
<path d="M2331 1814 c0 -11 3 -14 6 -6 3 7 2 16 -1 19 -3 4 -6 -2 -5 -13z"/>
<path d="M2501 1813 c-1 -12 -13 -36 -28 -54 -23 -27 -24 -30 -7 -21 24 13 49
64 41 84 -3 7 -6 3 -6 -9z"/>
<path d="M1422 1765 c0 -16 2 -22 5 -12 2 9 2 23 0 30 -3 6 -5 -1 -5 -18z"/>
<path d="M2341 1779 c-1 -17 29 -49 45 -49 5 0 1 5 -9 11 -10 6 -22 20 -27 32
-6 15 -9 17 -9 6z"/>
<path d="M3141 1779 c-1 -17 29 -49 45 -49 5 0 1 5 -9 11 -10 6 -22 20 -27 32
-6 15 -9 17 -9 6z"/>
<path d="M3630 1785 c0 -16 30 -55 42 -55 7 0 5 6 -4 13 -8 6 -20 21 -26 32
-6 11 -12 15 -12 10z"/>
<path d="M3501 1750 c-13 -11 -19 -20 -14 -20 6 0 18 9 28 20 23 25 17 25 -14
0z"/>
<path d="M1800 1738 c0 -5 30 -7 68 -7 69 2 62 6 -20 11 -27 2 -48 0 -48 -4z"/>
<path d="M3280 1740 c-9 -6 -10 -10 -3 -10 6 0 15 5 18 10 8 12 4 12 -15 0z"/>
<path d="M3877 1739 c7 -7 15 -10 18 -7 3 3 -2 9 -12 12 -14 6 -15 5 -6 -5z"/>
<path d="M4140 1740 c0 -9 39 -25 45 -18 2 2 -7 8 -21 15 -13 6 -24 7 -24 3z"/>
<path d="M1328 1723 c6 -2 18 -2 25 0 6 3 1 5 -13 5 -14 0 -19 -2 -12 -5z"/>
<path d="M3923 1723 c9 -2 23 -2 30 0 6 3 -1 5 -18 5 -16 0 -22 -2 -12 -5z"/>
<path d="M3859 603 c-13 -16 -12 -17 4 -4 9 7 17 15 17 17 0 8 -8 3 -21 -13z"/>
<path d="M3814 574 c-18 -14 -18 -15 4 -4 12 6 22 13 22 15 0 8 -5 6 -26 -11z"/>
</g>
</svg>
